<svg width="1920" height="1080" viewBox="0 0 1920 1080" fill="none" xmlns="http://www.w3.org/2000/svg">
<g clip-path="url(#clip0_1_2)">
<rect width="1920" height="1080" fill="black"/>
<g opacity="0.025">
<path d="M121.034 45.2744L139.13 6.54886C140.766 3.04638 139.254 -1.11969 135.751 -2.75632L28.1484 -53.0366C24.6459 -54.6732 20.4798 -53.1607 18.8432 -49.6582L-32.0366 59.2277C-33.6733 62.7302 -32.1607 66.8963 -28.6582 68.5329L78.9446 118.813C82.4471 120.45 86.6132 118.937 88.2498 115.435L104.496 80.6674" stroke="white" stroke-width="15"/>
<path d="M97.1372 34.1079L106.43 14.2206C106.43 14.2206 57.3887 -8.36967 34.0978 -19.5786L0.223716 52.914L72.556 86.7132L80.5749 69.5523" stroke="white" stroke-width="15"/>
<path d="M23.0724 21.5795L95.4769 55.1945" stroke="white" stroke-width="15"/>
<circle cx="112.661" cy="63.2275" r="6.89795" transform="rotate(25.0456 112.661 63.2275)" fill="white"/>
</g>
<g opacity="0.025">
<path d="M271.664 127.053L289.759 88.3277C291.396 84.8252 289.883 80.6591 286.381 79.0225L178.778 28.7422C175.275 27.1056 171.109 28.6181 169.473 32.1206L118.593 141.007C116.956 144.509 118.469 148.675 121.971 150.312L229.574 200.592C233.077 202.229 237.243 200.716 238.879 197.214L255.125 162.446" stroke="white" stroke-width="15"/>
<path d="M247.767 115.887L257.059 95.9993C257.059 95.9993 208.018 73.4091 184.727 62.2002L150.853 134.693L223.185 168.492L231.204 151.331" stroke="white" stroke-width="15"/>
<path d="M173.702 103.358L246.106 136.973" stroke="white" stroke-width="15"/>
<circle cx="263.291" cy="145.006" r="6.89795" transform="rotate(25.0456 263.291 145.006)" fill="white"/>
</g>
<g opacity="0.025">
<path d="M422.293 208.832L440.389 170.107C442.025 166.604 440.513 162.438 437.01 160.801L329.407 110.521C325.905 108.884 321.739 110.397 320.102 113.899L269.222 222.785C267.586 226.288 269.098 230.454 272.601 232.091L380.203 282.371C383.706 284.008 387.872 282.495 389.509 278.992L405.755 244.225" stroke="white" stroke-width="15"/>
<path d="M398.396 197.666L407.689 177.778C407.689 177.778 358.648 155.188 335.357 143.979L301.483 216.472L373.815 250.271L381.834 233.11" stroke="white" stroke-width="15"/>
<path d="M324.331 185.137L396.736 218.752" stroke="white" stroke-width="15"/>
<circle cx="413.92" cy="226.785" r="6.89795" transform="rotate(25.0456 413.92 226.785)" fill="white"/>
</g>
<g opacity="0.025">
<path d="M572.922 290.611L591.018 251.885C592.655 248.383 591.142 244.217 587.64 242.58L480.037 192.3C476.534 190.663 472.368 192.176 470.732 195.678L419.852 304.564C418.215 308.067 419.728 312.233 423.23 313.869L530.833 364.15C534.335 365.786 538.502 364.274 540.138 360.771L556.384 326.004" stroke="white" stroke-width="15"/>
<path d="M549.026 279.444L558.318 259.557C558.318 259.557 509.277 236.967 485.986 225.758L452.112 298.251L524.444 332.05L532.463 314.889" stroke="white" stroke-width="15"/>
<path d="M474.961 266.916L547.365 300.531" stroke="white" stroke-width="15"/>
<circle cx="564.55" cy="308.564" r="6.89795" transform="rotate(25.0456 564.55 308.564)" fill="white"/>
</g>
<g opacity="0.025">
<path d="M723.552 372.39L741.647 333.664C743.284 330.162 741.771 325.996 738.269 324.359L630.666 274.079C627.164 272.442 622.997 273.955 621.361 277.457L570.481 386.343C568.844 389.846 570.357 394.012 573.859 395.648L681.462 445.929C684.965 447.565 689.131 446.053 690.767 442.55L707.013 407.783" stroke="white" stroke-width="15"/>
<path d="M699.655 361.223L708.948 341.336C708.948 341.336 659.906 318.746 636.615 307.537L602.741 380.029L675.074 413.829L683.092 396.668" stroke="white" stroke-width="15"/>
<path d="M625.59 348.695L697.994 382.31" stroke="white" stroke-width="15"/>
<circle cx="715.179" cy="390.343" r="6.89795" transform="rotate(25.0456 715.179 390.343)" fill="white"/>
</g>
<g opacity="0.025">
<path d="M874.181 454.169L892.277 415.443C893.913 411.941 892.401 407.775 888.898 406.138L781.295 355.858C777.793 354.221 773.627 355.734 771.99 359.236L721.11 468.122C719.474 471.624 720.986 475.791 724.489 477.427L832.092 527.707C835.594 529.344 839.76 527.832 841.397 524.329L857.643 489.562" stroke="white" stroke-width="15"/>
<path d="M850.284 443.002L859.577 423.115C859.577 423.115 810.536 400.525 787.245 389.316L753.371 461.808L825.703 495.607L833.722 478.447" stroke="white" stroke-width="15"/>
<path d="M776.219 430.474L848.624 464.089" stroke="white" stroke-width="15"/>
<circle cx="865.808" cy="472.122" r="6.89795" transform="rotate(25.0456 865.808 472.122)" fill="white"/>
</g>
<g opacity="0.025">
<path d="M1024.81 535.947L1042.91 497.222C1044.54 493.719 1043.03 489.553 1039.53 487.917L931.925 437.636C928.422 436 924.256 437.512 922.62 441.015L871.74 549.901C870.103 553.403 871.616 557.569 875.118 559.206L982.721 609.486C986.224 611.123 990.39 609.61 992.026 606.108L1008.27 571.34" stroke="white" stroke-width="15"/>
<path d="M1000.91 524.781L1010.21 504.894C1010.21 504.894 961.165 482.303 937.874 471.094L904 543.587L976.332 577.386L984.351 560.225" stroke="white" stroke-width="15"/>
<path d="M926.849 512.253L999.253 545.868" stroke="white" stroke-width="15"/>
<circle cx="1016.44" cy="553.901" r="6.89795" transform="rotate(25.0456 1016.44 553.901)" fill="white"/>
</g>
<g opacity="0.025">
<path d="M1175.44 617.726L1193.54 579.001C1195.17 575.498 1193.66 571.332 1190.16 569.696L1082.55 519.415C1079.05 517.779 1074.89 519.291 1073.25 522.794L1022.37 631.68C1020.73 635.182 1022.25 639.348 1025.75 640.985L1133.35 691.265C1136.85 692.902 1141.02 691.389 1142.66 687.887L1158.9 653.119" stroke="white" stroke-width="15"/>
<path d="M1151.54 606.56L1160.84 586.672C1160.84 586.672 1111.79 564.082 1088.5 552.873L1054.63 625.366L1126.96 659.165L1134.98 642.004" stroke="white" stroke-width="15"/>
<path d="M1077.48 594.031L1149.88 627.646" stroke="white" stroke-width="15"/>
<circle cx="1167.07" cy="635.679" r="6.89795" transform="rotate(25.0456 1167.07 635.679)" fill="white"/>
</g>
<g opacity="0.025">
<path d="M1326.07 699.505L1344.16 660.78C1345.8 657.277 1344.29 653.111 1340.79 651.474L1233.18 601.194C1229.68 599.558 1225.52 601.07 1223.88 604.573L1173 713.458C1171.36 716.961 1172.87 721.127 1176.38 722.764L1283.98 773.044C1287.48 774.681 1291.65 773.168 1293.29 769.666L1309.53 734.898" stroke="white" stroke-width="15"/>
<path d="M1302.17 688.339L1311.47 668.451C1311.47 668.451 1262.42 645.861 1239.13 634.652L1205.26 707.145L1277.59 740.944L1285.61 723.783" stroke="white" stroke-width="15"/>
<path d="M1228.11 675.81L1300.51 709.425" stroke="white" stroke-width="15"/>
<circle cx="1317.7" cy="717.458" r="6.89795" transform="rotate(25.0456 1317.7 717.458)" fill="white"/>
</g>
<g opacity="0.025">
<path d="M1476.7 781.284L1494.79 742.559C1496.43 739.056 1494.92 734.89 1491.42 733.253L1383.81 682.973C1380.31 681.336 1376.14 682.849 1374.51 686.351L1323.63 795.237C1321.99 798.74 1323.5 802.906 1327.01 804.543L1434.61 854.823C1438.11 856.459 1442.28 854.947 1443.91 851.444L1460.16 816.677" stroke="white" stroke-width="15"/>
<path d="M1452.8 770.118L1462.09 750.23C1462.09 750.23 1413.05 727.64 1389.76 716.431L1355.89 788.924L1428.22 822.723L1436.24 805.562" stroke="white" stroke-width="15"/>
<path d="M1378.74 757.589L1451.14 791.204" stroke="white" stroke-width="15"/>
<circle cx="1468.33" cy="799.237" r="6.89795" transform="rotate(25.0456 1468.33 799.237)" fill="white"/>
</g>
<g opacity="0.025">
<path d="M1627.33 863.063L1645.42 824.337C1647.06 820.835 1645.55 816.669 1642.05 815.032L1534.44 764.752C1530.94 763.115 1526.77 764.628 1525.14 768.13L1474.26 877.016C1472.62 880.519 1474.13 884.685 1477.64 886.321L1585.24 936.602C1588.74 938.238 1592.91 936.726 1594.54 933.223L1610.79 898.456" stroke="white" stroke-width="15"/>
<path d="M1603.43 851.896L1612.72 832.009C1612.72 832.009 1563.68 809.419 1540.39 798.21L1506.52 870.703L1578.85 904.502L1586.87 887.341" stroke="white" stroke-width="15"/>
<path d="M1529.37 839.368L1601.77 872.983" stroke="white" stroke-width="15"/>
<circle cx="1618.96" cy="881.016" r="6.89795" transform="rotate(25.0456 1618.96 881.016)" fill="white"/>
</g>
<g opacity="0.025">
<path d="M1777.96 944.842L1796.05 906.116C1797.69 902.614 1796.18 898.448 1792.67 896.811L1685.07 846.531C1681.57 844.894 1677.4 846.407 1675.77 849.909L1624.89 958.795C1623.25 962.298 1624.76 966.464 1628.27 968.1L1735.87 1018.38C1739.37 1020.02 1743.54 1018.5 1745.17 1015L1761.42 980.235" stroke="white" stroke-width="15"/>
<path d="M1754.06 933.675L1763.35 913.788C1763.35 913.788 1714.31 891.198 1691.02 879.989L1657.15 952.481L1729.48 986.281L1737.5 969.12" stroke="white" stroke-width="15"/>
<path d="M1680 921.147L1752.4 954.762" stroke="white" stroke-width="15"/>
<circle cx="1769.58" cy="962.795" r="6.89795" transform="rotate(25.0456 1769.58 962.795)" fill="white"/>
</g>
<g opacity="0.025">
<path d="M1928.59 1026.62L1946.68 987.895C1948.32 984.393 1946.81 980.227 1943.3 978.59L1835.7 928.31C1832.2 926.673 1828.03 928.186 1826.4 931.688L1775.52 1040.57C1773.88 1044.08 1775.39 1048.24 1778.89 1049.88L1886.5 1100.16C1890 1101.8 1894.17 1100.28 1895.8 1096.78L1912.05 1062.01" stroke="white" stroke-width="15"/>
<path d="M1904.69 1015.45L1913.98 995.567C1913.98 995.567 1864.94 972.976 1841.65 961.768L1807.78 1034.26L1880.11 1068.06L1888.13 1050.9" stroke="white" stroke-width="15"/>
<path d="M1830.63 1002.93L1903.03 1036.54" stroke="white" stroke-width="15"/>
<circle cx="1920.21" cy="1044.57" r="6.89795" transform="rotate(25.0456 1920.21 1044.57)" fill="white"/>
</g>
<g opacity="0.025">
<path d="M12.0342 201.274L30.1297 162.549C31.7664 159.046 30.2538 154.88 26.7513 153.244L-80.8516 102.963C-84.354 101.327 -88.5201 102.839 -90.1567 106.342L-141.037 215.228C-142.673 218.73 -141.161 222.896 -137.658 224.533L-30.0553 274.813C-26.5528 276.45 -22.3867 274.937 -20.7501 271.435L-4.50411 236.667" stroke="white" stroke-width="15"/>
<path d="M-11.8627 190.108L-2.56984 170.221C-2.56984 170.221 -51.6112 147.63 -74.9021 136.421L-108.776 208.914L-36.444 242.713L-28.4251 225.552" stroke="white" stroke-width="15"/>
<circle cx="3.66145" cy="219.228" r="6.89795" transform="rotate(25.0456 3.66145 219.228)" fill="white"/>
</g>
<g opacity="0.025">
<path d="M162.664 283.053L180.759 244.328C182.396 240.825 180.883 236.659 177.381 235.022L69.7778 184.742C66.2753 183.106 62.1092 184.618 60.4726 188.121L9.59275 297.007C7.95612 300.509 9.4687 304.675 12.9712 306.312L120.574 356.592C124.077 358.229 128.243 356.716 129.879 353.214L146.125 318.446" stroke="white" stroke-width="15"/>
<path d="M138.767 271.887L148.059 251.999C148.059 251.999 99.0181 229.409 75.7272 218.2L41.8531 290.693L114.185 324.492L122.204 307.331" stroke="white" stroke-width="15"/>
<path d="M64.7018 259.358L137.106 292.973" stroke="white" stroke-width="15"/>
<circle cx="154.291" cy="301.006" r="6.89795" transform="rotate(25.0456 154.291 301.006)" fill="white"/>
</g>
<g opacity="0.025">
<path d="M313.293 364.832L331.389 326.107C333.025 322.604 331.513 318.438 328.01 316.801L220.407 266.521C216.905 264.884 212.739 266.397 211.102 269.899L160.222 378.785C158.586 382.288 160.098 386.454 163.601 388.091L271.203 438.371C274.706 440.008 278.872 438.495 280.509 434.992L296.755 400.225" stroke="white" stroke-width="15"/>
<path d="M289.396 353.666L298.689 333.778C298.689 333.778 249.648 311.188 226.357 299.979L192.483 372.472L264.815 406.271L272.834 389.11" stroke="white" stroke-width="15"/>
<path d="M215.331 341.137L287.736 374.752" stroke="white" stroke-width="15"/>
<circle cx="304.92" cy="382.785" r="6.89795" transform="rotate(25.0456 304.92 382.785)" fill="white"/>
</g>
<g opacity="0.025">
<path d="M463.922 446.611L482.018 407.885C483.655 404.383 482.142 400.217 478.64 398.58L371.037 348.3C367.534 346.663 363.368 348.176 361.732 351.678L310.852 460.564C309.215 464.067 310.728 468.233 314.23 469.869L421.833 520.15C425.335 521.786 429.502 520.274 431.138 516.771L447.384 482.004" stroke="white" stroke-width="15"/>
<path d="M440.026 435.444L449.318 415.557C449.318 415.557 400.277 392.967 376.986 381.758L343.112 454.251L415.444 488.05L423.463 470.889" stroke="white" stroke-width="15"/>
<path d="M365.961 422.916L438.365 456.531" stroke="white" stroke-width="15"/>
<circle cx="455.55" cy="464.564" r="6.89795" transform="rotate(25.0456 455.55 464.564)" fill="white"/>
</g>
<g opacity="0.025">
<path d="M614.552 528.39L632.647 489.664C634.284 486.162 632.771 481.996 629.269 480.359L521.666 430.079C518.164 428.442 513.997 429.955 512.361 433.457L461.481 542.343C459.844 545.846 461.357 550.012 464.859 551.648L572.462 601.929C575.965 603.565 580.131 602.053 581.767 598.55L598.013 563.783" stroke="white" stroke-width="15"/>
<path d="M590.655 517.223L599.948 497.336C599.948 497.336 550.906 474.746 527.615 463.537L493.741 536.029L566.074 569.829L574.092 552.668" stroke="white" stroke-width="15"/>
<path d="M516.59 504.695L588.994 538.31" stroke="white" stroke-width="15"/>
<circle cx="606.179" cy="546.343" r="6.89795" transform="rotate(25.0456 606.179 546.343)" fill="white"/>
</g>
<g opacity="0.025">
<path d="M765.181 610.169L783.277 571.443C784.913 567.941 783.401 563.775 779.898 562.138L672.295 511.858C668.793 510.221 664.627 511.734 662.99 515.236L612.11 624.122C610.474 627.624 611.986 631.791 615.489 633.427L723.092 683.707C726.594 685.344 730.76 683.832 732.397 680.329L748.643 645.562" stroke="white" stroke-width="15"/>
<path d="M741.284 599.002L750.577 579.115C750.577 579.115 701.536 556.525 678.245 545.316L644.371 617.808L716.703 651.607L724.722 634.447" stroke="white" stroke-width="15"/>
<path d="M667.219 586.474L739.624 620.089" stroke="white" stroke-width="15"/>
<circle cx="756.808" cy="628.122" r="6.89795" transform="rotate(25.0456 756.808 628.122)" fill="white"/>
</g>
<g opacity="0.025">
<path d="M915.811 691.947L933.906 653.222C935.543 649.719 934.03 645.553 930.528 643.917L822.925 593.636C819.422 592 815.256 593.512 813.62 597.015L762.74 705.901C761.103 709.403 762.616 713.569 766.118 715.206L873.721 765.486C877.224 767.123 881.39 765.61 883.026 762.108L899.272 727.34" stroke="white" stroke-width="15"/>
<path d="M891.914 680.781L901.207 660.894C901.207 660.894 852.165 638.303 828.874 627.094L795 699.587L867.332 733.386L875.351 716.225" stroke="white" stroke-width="15"/>
<path d="M817.849 668.253L890.253 701.868" stroke="white" stroke-width="15"/>
<circle cx="907.438" cy="709.901" r="6.89795" transform="rotate(25.0456 907.438 709.901)" fill="white"/>
</g>
<g opacity="0.025">
<path d="M1066.44 773.726L1084.54 735.001C1086.17 731.498 1084.66 727.332 1081.16 725.696L973.554 675.415C970.052 673.779 965.886 675.291 964.249 678.794L913.369 787.68C911.733 791.182 913.245 795.348 916.748 796.985L1024.35 847.265C1027.85 848.902 1032.02 847.389 1033.66 843.887L1049.9 809.119" stroke="white" stroke-width="15"/>
<path d="M1042.54 762.56L1051.84 742.672C1051.84 742.672 1002.79 720.082 979.504 708.873L945.63 781.366L1017.96 815.165L1025.98 798.004" stroke="white" stroke-width="15"/>
<path d="M968.478 750.031L1040.88 783.646" stroke="white" stroke-width="15"/>
<circle cx="1058.07" cy="791.679" r="6.89795" transform="rotate(25.0456 1058.07 791.679)" fill="white"/>
</g>
<g opacity="0.025">
<path d="M1217.07 855.505L1235.16 816.78C1236.8 813.277 1235.29 809.111 1231.79 807.474L1124.18 757.194C1120.68 755.558 1116.52 757.07 1114.88 760.573L1064 869.458C1062.36 872.961 1063.87 877.127 1067.38 878.764L1174.98 929.044C1178.48 930.681 1182.65 929.168 1184.29 925.666L1200.53 890.898" stroke="white" stroke-width="15"/>
<path d="M1193.17 844.339L1202.47 824.451C1202.47 824.451 1153.42 801.861 1130.13 790.652L1096.26 863.145L1168.59 896.944L1176.61 879.783" stroke="white" stroke-width="15"/>
<path d="M1119.11 831.81L1191.51 865.425" stroke="white" stroke-width="15"/>
<circle cx="1208.7" cy="873.458" r="6.89795" transform="rotate(25.0456 1208.7 873.458)" fill="white"/>
</g>
<g opacity="0.025">
<path d="M1367.7 937.284L1385.79 898.559C1387.43 895.056 1385.92 890.89 1382.42 889.253L1274.81 838.973C1271.31 837.336 1267.14 838.849 1265.51 842.351L1214.63 951.237C1212.99 954.74 1214.5 958.906 1218.01 960.543L1325.61 1010.82C1329.11 1012.46 1333.28 1010.95 1334.91 1007.44L1351.16 972.677" stroke="white" stroke-width="15"/>
<path d="M1343.8 926.118L1353.09 906.23C1353.09 906.23 1304.05 883.64 1280.76 872.431L1246.89 944.924L1319.22 978.723L1327.24 961.562" stroke="white" stroke-width="15"/>
<path d="M1269.74 913.589L1342.14 947.204" stroke="white" stroke-width="15"/>
<circle cx="1359.33" cy="955.237" r="6.89795" transform="rotate(25.0456 1359.33 955.237)" fill="white"/>
</g>
<g opacity="0.025">
<path d="M1518.33 1019.06L1536.42 980.337C1538.06 976.835 1536.55 972.669 1533.05 971.032L1425.44 920.752C1421.94 919.115 1417.77 920.628 1416.14 924.13L1365.26 1033.02C1363.62 1036.52 1365.13 1040.68 1368.64 1042.32L1476.24 1092.6C1479.74 1094.24 1483.91 1092.73 1485.54 1089.22L1501.79 1054.46" stroke="white" stroke-width="15"/>
<path d="M1494.43 1007.9L1503.72 988.009C1503.72 988.009 1454.68 965.419 1431.39 954.21L1397.52 1026.7L1469.85 1060.5L1477.87 1043.34" stroke="white" stroke-width="15"/>
<path d="M1420.37 995.368L1492.77 1028.98" stroke="white" stroke-width="15"/>
<circle cx="1509.96" cy="1037.02" r="6.89795" transform="rotate(25.0456 1509.96 1037.02)" fill="white"/>
</g>
<g opacity="0.025">
<path d="M1668.96 1100.84L1687.05 1062.12C1688.69 1058.61 1687.18 1054.45 1683.67 1052.81L1576.07 1002.53C1572.57 1000.89 1568.4 1002.41 1566.77 1005.91L1515.89 1114.8C1514.25 1118.3 1515.76 1122.46 1519.27 1124.1L1626.87 1174.38C1630.37 1176.02 1634.54 1174.5 1636.17 1171L1652.42 1136.23" stroke="white" stroke-width="15"/>
<path d="M1645.06 1089.68L1654.35 1069.79C1654.35 1069.79 1605.31 1047.2 1582.02 1035.99L1548.15 1108.48L1620.48 1142.28L1628.5 1125.12" stroke="white" stroke-width="15"/>
<path d="M1571 1077.15L1643.4 1110.76" stroke="white" stroke-width="15"/>
</g>
<g opacity="0.025">
<path d="M1819.59 1182.62L1837.68 1143.9C1839.32 1140.39 1837.81 1136.23 1834.3 1134.59L1726.7 1084.31C1723.2 1082.67 1719.03 1084.19 1717.4 1087.69L1666.52 1196.57C1664.88 1200.08 1666.39 1204.24 1669.89 1205.88L1777.5 1256.16C1781 1257.8 1785.17 1256.28 1786.8 1252.78L1803.05 1218.01" stroke="white" stroke-width="15"/>
</g>
<g opacity="0.025">
<path d="M53.6635 439.053L71.7591 400.328C73.3957 396.825 71.8831 392.659 68.3806 391.022L-39.2222 340.742C-42.7247 339.106 -46.8908 340.618 -48.5274 344.121L-99.4073 453.007C-101.044 456.509 -99.5313 460.675 -96.0288 462.312L11.574 512.592C15.0765 514.229 19.2426 512.716 20.8792 509.214L37.1252 474.446" stroke="white" stroke-width="15"/>
<path d="M29.7666 427.887L39.0595 407.999C39.0595 407.999 -9.98191 385.409 -33.2728 374.2L-67.1469 446.693L5.18537 480.492L13.2042 463.331" stroke="white" stroke-width="15"/>
<path d="M-44.2982 415.358L28.1063 448.973" stroke="white" stroke-width="15"/>
<circle cx="45.2908" cy="457.006" r="6.89795" transform="rotate(25.0456 45.2908 457.006)" fill="white"/>
</g>
<g opacity="0.025">
<path d="M204.293 520.832L222.389 482.107C224.025 478.604 222.513 474.438 219.01 472.801L111.407 422.521C107.905 420.884 103.739 422.397 102.102 425.899L51.2222 534.785C49.5856 538.288 51.0982 542.454 54.6006 544.091L162.203 594.371C165.706 596.008 169.872 594.495 171.509 590.992L187.755 556.225" stroke="white" stroke-width="15"/>
<path d="M180.396 509.666L189.689 489.778C189.689 489.778 140.648 467.188 117.357 455.979L83.4826 528.472L155.815 562.271L163.834 545.11" stroke="white" stroke-width="15"/>
<path d="M106.331 497.137L178.736 530.752" stroke="white" stroke-width="15"/>
<circle cx="195.92" cy="538.785" r="6.89795" transform="rotate(25.0456 195.92 538.785)" fill="white"/>
</g>
<g opacity="0.025">
<path d="M354.922 602.611L373.018 563.885C374.655 560.383 373.142 556.217 369.64 554.58L262.037 504.3C258.534 502.663 254.368 504.176 252.732 507.678L201.852 616.564C200.215 620.067 201.728 624.233 205.23 625.869L312.833 676.15C316.335 677.786 320.502 676.274 322.138 672.771L338.384 638.004" stroke="white" stroke-width="15"/>
<path d="M331.026 591.444L340.318 571.557C340.318 571.557 291.277 548.967 267.986 537.758L234.112 610.251L306.444 644.05L314.463 626.889" stroke="white" stroke-width="15"/>
<path d="M256.961 578.916L329.365 612.531" stroke="white" stroke-width="15"/>
<circle cx="346.55" cy="620.564" r="6.89795" transform="rotate(25.0456 346.55 620.564)" fill="white"/>
</g>
<g opacity="0.025">
<path d="M505.552 684.39L523.647 645.664C525.284 642.162 523.771 637.996 520.269 636.359L412.666 586.079C409.164 584.442 404.997 585.955 403.361 589.457L352.481 698.343C350.844 701.846 352.357 706.012 355.859 707.648L463.462 757.929C466.965 759.565 471.131 758.053 472.767 754.55L489.013 719.783" stroke="white" stroke-width="15"/>
<path d="M481.655 673.223L490.948 653.336C490.948 653.336 441.906 630.746 418.615 619.537L384.741 692.029L457.074 725.829L465.092 708.668" stroke="white" stroke-width="15"/>
<path d="M407.59 660.695L479.994 694.31" stroke="white" stroke-width="15"/>
<circle cx="497.179" cy="702.343" r="6.89795" transform="rotate(25.0456 497.179 702.343)" fill="white"/>
</g>
<g opacity="0.025">
<path d="M656.181 766.169L674.277 727.443C675.913 723.941 674.401 719.775 670.898 718.138L563.295 667.858C559.793 666.221 555.627 667.734 553.99 671.236L503.11 780.122C501.474 783.624 502.986 787.791 506.489 789.427L614.092 839.707C617.594 841.344 621.76 839.832 623.397 836.329L639.643 801.562" stroke="white" stroke-width="15"/>
<path d="M632.284 755.002L641.577 735.115C641.577 735.115 592.536 712.525 569.245 701.316L535.371 773.808L607.703 807.607L615.722 790.447" stroke="white" stroke-width="15"/>
<path d="M558.219 742.474L630.624 776.089" stroke="white" stroke-width="15"/>
<circle cx="647.808" cy="784.122" r="6.89795" transform="rotate(25.0456 647.808 784.122)" fill="white"/>
</g>
<g opacity="0.025">
<path d="M806.811 847.947L824.906 809.222C826.543 805.719 825.03 801.553 821.528 799.917L713.925 749.636C710.422 748 706.256 749.512 704.62 753.015L653.74 861.901C652.103 865.403 653.616 869.569 657.118 871.206L764.721 921.486C768.224 923.123 772.39 921.61 774.026 918.108L790.272 883.34" stroke="white" stroke-width="15"/>
<path d="M782.914 836.781L792.207 816.894C792.207 816.894 743.165 794.303 719.874 783.094L686 855.587L758.332 889.386L766.351 872.225" stroke="white" stroke-width="15"/>
<path d="M708.849 824.253L781.253 857.868" stroke="white" stroke-width="15"/>
<circle cx="798.438" cy="865.901" r="6.89795" transform="rotate(25.0456 798.438 865.901)" fill="white"/>
</g>
<g opacity="0.025">
<path d="M957.44 929.726L975.535 891.001C977.172 887.498 975.66 883.332 972.157 881.696L864.554 831.415C861.052 829.779 856.886 831.291 855.249 834.794L804.369 943.68C802.733 947.182 804.245 951.348 807.748 952.985L915.35 1003.27C918.853 1004.9 923.019 1003.39 924.656 999.887L940.902 965.119" stroke="white" stroke-width="15"/>
<path d="M933.543 918.56L942.836 898.672C942.836 898.672 893.795 876.082 870.504 864.873L836.63 937.366L908.962 971.165L916.981 954.004" stroke="white" stroke-width="15"/>
<path d="M859.478 906.031L931.883 939.646" stroke="white" stroke-width="15"/>
<circle cx="949.067" cy="947.679" r="6.89795" transform="rotate(25.0456 949.067 947.679)" fill="white"/>
</g>
<g opacity="0.025">
<path d="M1108.07 1011.51L1126.16 972.78C1127.8 969.277 1126.29 965.111 1122.79 963.474L1015.18 913.194C1011.68 911.558 1007.52 913.07 1005.88 916.573L954.999 1025.46C953.362 1028.96 954.875 1033.13 958.377 1034.76L1065.98 1085.04C1069.48 1086.68 1073.65 1085.17 1075.29 1081.67L1091.53 1046.9" stroke="white" stroke-width="15"/>
<path d="M1084.17 1000.34L1093.47 980.451C1093.47 980.451 1044.42 957.861 1021.13 946.652L987.259 1019.14L1059.59 1052.94L1067.61 1035.78" stroke="white" stroke-width="15"/>
<path d="M1010.11 987.81L1082.51 1021.43" stroke="white" stroke-width="15"/>
<circle cx="1099.7" cy="1029.46" r="6.89795" transform="rotate(25.0456 1099.7 1029.46)" fill="white"/>
</g>
<g opacity="0.025">
<path d="M1258.7 1093.28L1276.79 1054.56C1278.43 1051.06 1276.92 1046.89 1273.42 1045.25L1165.81 994.973C1162.31 993.336 1158.14 994.849 1156.51 998.351L1105.63 1107.24C1103.99 1110.74 1105.5 1114.91 1109.01 1116.54L1216.61 1166.82C1220.11 1168.46 1224.28 1166.95 1225.91 1163.44L1242.16 1128.68" stroke="white" stroke-width="15"/>
<path d="M1234.8 1082.12L1244.09 1062.23C1244.09 1062.23 1195.05 1039.64 1171.76 1028.43L1137.89 1100.92L1210.22 1134.72L1218.24 1117.56" stroke="white" stroke-width="15"/>
<path d="M1160.74 1069.59L1233.14 1103.2" stroke="white" stroke-width="15"/>
</g>
<g opacity="0.025">
<path d="M1409.33 1175.06L1427.42 1136.34C1429.06 1132.83 1427.55 1128.67 1424.05 1127.03L1316.44 1076.75C1312.94 1075.12 1308.77 1076.63 1307.14 1080.13L1256.26 1189.02C1254.62 1192.52 1256.13 1196.68 1259.64 1198.32L1367.24 1248.6C1370.74 1250.24 1374.91 1248.73 1376.54 1245.22L1392.79 1210.46" stroke="white" stroke-width="15"/>
</g>
<g opacity="0.025">
<path d="M95.293 676.832L113.389 638.107C115.025 634.604 113.513 630.438 110.01 628.801L2.40723 578.521C-1.09524 576.884 -5.26132 578.397 -6.89794 581.899L-57.7778 690.785C-59.4144 694.288 -57.9018 698.454 -54.3994 700.091L53.2035 750.371C56.706 752.008 60.872 750.495 62.5087 746.992L78.7547 712.225" stroke="white" stroke-width="15"/>
<path d="M71.396 665.666L80.6889 645.778C80.6889 645.778 31.6475 623.188 8.35669 611.979L-25.5174 684.472L46.8148 718.271L54.8337 701.11" stroke="white" stroke-width="15"/>
<path d="M-2.6687 653.137L69.7357 686.752" stroke="white" stroke-width="15"/>
<circle cx="86.9202" cy="694.785" r="6.89795" transform="rotate(25.0456 86.9202 694.785)" fill="white"/>
</g>
<g opacity="0.025">
<path d="M245.922 758.611L264.018 719.885C265.655 716.383 264.142 712.217 260.64 710.58L153.037 660.3C149.534 658.663 145.368 660.176 143.732 663.678L92.8517 772.564C91.215 776.067 92.7276 780.233 96.2301 781.869L203.833 832.15C207.335 833.786 211.502 832.274 213.138 828.771L229.384 794.004" stroke="white" stroke-width="15"/>
<path d="M222.026 747.444L231.318 727.557C231.318 727.557 182.277 704.967 158.986 693.758L125.112 766.251L197.444 800.05L205.463 782.889" stroke="white" stroke-width="15"/>
<path d="M147.961 734.916L220.365 768.531" stroke="white" stroke-width="15"/>
<circle cx="237.55" cy="776.564" r="6.89795" transform="rotate(25.0456 237.55 776.564)" fill="white"/>
</g>
<g opacity="0.025">
<path d="M396.552 840.39L414.647 801.664C416.284 798.162 414.771 793.996 411.269 792.359L303.666 742.079C300.164 740.442 295.997 741.955 294.361 745.457L243.481 854.343C241.844 857.846 243.357 862.012 246.859 863.648L354.462 913.929C357.965 915.565 362.131 914.053 363.767 910.55L380.013 875.783" stroke="white" stroke-width="15"/>
<path d="M372.655 829.223L381.948 809.336C381.948 809.336 332.906 786.746 309.615 775.537L275.741 848.029L348.074 881.829L356.092 864.668" stroke="white" stroke-width="15"/>
<path d="M298.59 816.695L370.994 850.31" stroke="white" stroke-width="15"/>
<circle cx="388.179" cy="858.343" r="6.89795" transform="rotate(25.0456 388.179 858.343)" fill="white"/>
</g>
<g opacity="0.025">
<path d="M547.181 922.169L565.277 883.443C566.913 879.941 565.401 875.775 561.898 874.138L454.295 823.858C450.793 822.221 446.627 823.734 444.99 827.236L394.11 936.122C392.474 939.624 393.986 943.791 397.489 945.427L505.092 995.707C508.594 997.344 512.76 995.832 514.397 992.329L530.643 957.562" stroke="white" stroke-width="15"/>
<path d="M523.284 911.002L532.577 891.115C532.577 891.115 483.536 868.525 460.245 857.316L426.371 929.808L498.703 963.607L506.722 946.447" stroke="white" stroke-width="15"/>
<path d="M449.219 898.474L521.624 932.089" stroke="white" stroke-width="15"/>
<circle cx="538.808" cy="940.122" r="6.89795" transform="rotate(25.0456 538.808 940.122)" fill="white"/>
</g>
<g opacity="0.025">
<path d="M697.811 1003.95L715.906 965.222C717.543 961.719 716.03 957.553 712.528 955.917L604.925 905.636C601.422 904 597.256 905.512 595.62 909.015L544.74 1017.9C543.103 1021.4 544.616 1025.57 548.118 1027.21L655.721 1077.49C659.224 1079.12 663.39 1077.61 665.026 1074.11L681.272 1039.34" stroke="white" stroke-width="15"/>
<path d="M673.914 992.781L683.207 972.894C683.207 972.894 634.165 950.303 610.874 939.094L577 1011.59L649.332 1045.39L657.351 1028.23" stroke="white" stroke-width="15"/>
<path d="M599.849 980.253L672.253 1013.87" stroke="white" stroke-width="15"/>
<circle cx="689.438" cy="1021.9" r="6.89795" transform="rotate(25.0456 689.438 1021.9)" fill="white"/>
</g>
<g opacity="0.025">
<path d="M848.44 1085.73L866.535 1047C868.172 1043.5 866.66 1039.33 863.157 1037.7L755.554 987.415C752.052 985.779 747.886 987.291 746.249 990.794L695.369 1099.68C693.733 1103.18 695.245 1107.35 698.748 1108.98L806.35 1159.27C809.853 1160.9 814.019 1159.39 815.656 1155.89L831.902 1121.12" stroke="white" stroke-width="15"/>
<path d="M824.543 1074.56L833.836 1054.67C833.836 1054.67 784.795 1032.08 761.504 1020.87L727.63 1093.37L799.962 1127.17L807.981 1110" stroke="white" stroke-width="15"/>
<path d="M750.478 1062.03L822.883 1095.65" stroke="white" stroke-width="15"/>
</g>
<g opacity="0.025">
<path d="M999.069 1167.51L1017.16 1128.78C1018.8 1125.28 1017.29 1121.11 1013.79 1119.47L906.184 1069.19C902.681 1067.56 898.515 1069.07 896.878 1072.57L845.999 1181.46C844.362 1184.96 845.875 1189.13 849.377 1190.76L956.98 1241.04C960.482 1242.68 964.648 1241.17 966.285 1237.67L982.531 1202.9" stroke="white" stroke-width="15"/>
</g>
<g opacity="0.025">
<path d="M-13.707 832.832L4.38852 794.107C6.02515 790.604 4.51257 786.438 1.0101 784.801L-106.593 734.521C-110.095 732.884 -114.261 734.397 -115.898 737.899L-166.778 846.785C-168.414 850.288 -166.902 854.454 -163.399 856.091L-55.7965 906.371C-52.294 908.008 -48.128 906.495 -46.4913 902.992L-30.2453 868.225" stroke="white" stroke-width="15"/>
</g>
<g opacity="0.025">
<path d="M136.922 914.611L155.018 875.885C156.655 872.383 155.142 868.217 151.64 866.58L44.0367 816.3C40.5342 814.663 36.3681 816.176 34.7315 819.678L-16.1483 928.564C-17.785 932.067 -16.2724 936.233 -12.7699 937.869L94.8329 988.15C98.3354 989.786 102.502 988.274 104.138 984.771L120.384 950.004" stroke="white" stroke-width="15"/>
<path d="M113.026 903.444L122.318 883.557C122.318 883.557 73.277 860.967 49.9861 849.758L16.112 922.251L88.4443 956.05L96.4632 938.889" stroke="white" stroke-width="15"/>
<path d="M38.9608 890.916L111.365 924.531" stroke="white" stroke-width="15"/>
<circle cx="128.55" cy="932.564" r="6.89795" transform="rotate(25.0456 128.55 932.564)" fill="white"/>
</g>
<g opacity="0.025">
<path d="M287.552 996.39L305.647 957.664C307.284 954.162 305.771 949.996 302.269 948.359L194.666 898.079C191.164 896.442 186.997 897.955 185.361 901.457L134.481 1010.34C132.844 1013.85 134.357 1018.01 137.859 1019.65L245.462 1069.93C248.965 1071.57 253.131 1070.05 254.767 1066.55L271.013 1031.78" stroke="white" stroke-width="15"/>
<path d="M263.655 985.223L272.948 965.336C272.948 965.336 223.906 942.746 200.615 931.537L166.741 1004.03L239.074 1037.83L247.092 1020.67" stroke="white" stroke-width="15"/>
<path d="M189.59 972.695L261.994 1006.31" stroke="white" stroke-width="15"/>
<circle cx="279.179" cy="1014.34" r="6.89795" transform="rotate(25.0456 279.179 1014.34)" fill="white"/>
</g>
<g opacity="0.025">
<path d="M438.181 1078.17L456.277 1039.44C457.913 1035.94 456.401 1031.77 452.898 1030.14L345.295 979.858C341.793 978.221 337.627 979.734 335.99 983.236L285.11 1092.12C283.474 1095.62 284.986 1099.79 288.489 1101.43L396.092 1151.71C399.594 1153.34 403.76 1151.83 405.397 1148.33L421.643 1113.56" stroke="white" stroke-width="15"/>
<path d="M414.284 1067L423.577 1047.11C423.577 1047.11 374.536 1024.52 351.245 1013.32L317.371 1085.81L389.703 1119.61L397.722 1102.45" stroke="white" stroke-width="15"/>
<path d="M340.219 1054.47L412.624 1088.09" stroke="white" stroke-width="15"/>
</g>
<g opacity="0.025">
<path d="M588.811 1159.95L606.906 1121.22C608.543 1117.72 607.03 1113.55 603.528 1111.92L495.925 1061.64C492.422 1060 488.256 1061.51 486.62 1065.01L435.74 1173.9C434.103 1177.4 435.616 1181.57 439.118 1183.21L546.721 1233.49C550.224 1235.12 554.39 1233.61 556.026 1230.11L572.272 1195.34" stroke="white" stroke-width="15"/>
</g>
<g opacity="0.025">
<path d="M27.9224 1070.61L46.0179 1031.89C47.6545 1028.38 46.142 1024.22 42.6395 1022.58L-64.9634 972.3C-68.4658 970.663 -72.6319 972.176 -74.2686 975.678L-125.148 1084.56C-126.785 1088.07 -125.272 1092.23 -121.77 1093.87L-14.1671 1144.15C-10.6646 1145.79 -6.49856 1144.27 -4.86193 1140.77L11.3841 1106" stroke="white" stroke-width="15"/>
<path d="M4.02544 1059.44L13.3183 1039.56C13.3183 1039.56 -35.7231 1016.97 -59.0139 1005.76L-92.888 1078.25L-20.5558 1112.05L-12.5369 1094.89" stroke="white" stroke-width="15"/>
<path d="M-70.0393 1046.92L2.3651 1080.53" stroke="white" stroke-width="15"/>
<circle cx="19.5496" cy="1088.56" r="6.89795" transform="rotate(25.0456 19.5496 1088.56)" fill="white"/>
</g>
<g opacity="0.025">
<path d="M178.552 1152.39L196.647 1113.66C198.284 1110.16 196.771 1106 193.269 1104.36L85.666 1054.08C82.1635 1052.44 77.9975 1053.95 76.3608 1057.46L25.481 1166.34C23.8444 1169.85 25.3569 1174.01 28.8594 1175.65L136.462 1225.93C139.965 1227.57 144.131 1226.05 145.767 1222.55L162.013 1187.78" stroke="white" stroke-width="15"/>
<path d="M154.655 1141.22L163.948 1121.34C163.948 1121.34 114.906 1098.75 91.6155 1087.54L57.7414 1160.03L130.074 1193.83L138.092 1176.67" stroke="white" stroke-width="15"/>
</g>
<g opacity="0.025">
<path d="M388.664 -30.9468L406.759 -69.6723C408.396 -73.1748 406.883 -77.3409 403.381 -78.9775L295.778 -129.258C292.275 -130.894 288.109 -129.382 286.473 -125.879L235.593 -16.9935C233.956 -13.491 235.469 -9.32493 238.971 -7.6883L346.574 42.592C350.077 44.2286 354.243 42.7161 355.879 39.2136L372.125 4.44617" stroke="white" stroke-width="15"/>
<path d="M364.767 -42.1133L374.059 -62.0006C374.059 -62.0006 325.018 -84.5909 301.727 -95.7998L267.853 -23.3072L340.185 10.492L348.204 -6.66885" stroke="white" stroke-width="15"/>
</g>
<g opacity="0.025">
<path d="M539.293 50.8321L557.389 12.1065C559.025 8.60406 557.513 4.43799 554.01 2.80136L446.407 -47.4789C442.905 -49.1156 438.739 -47.603 437.102 -44.1005L386.222 64.7854C384.586 68.2879 386.098 72.4539 389.601 74.0906L497.203 124.371C500.706 126.008 504.872 124.495 506.509 120.992L522.755 86.225" stroke="white" stroke-width="15"/>
<path d="M515.396 39.6656L524.689 19.7782C524.689 19.7782 475.648 -2.81199 452.357 -14.0209L418.483 58.4717L490.815 92.2709L498.834 75.11" stroke="white" stroke-width="15"/>
<path d="M441.331 27.1372L513.736 60.7522" stroke="white" stroke-width="15"/>
<circle cx="530.92" cy="68.7852" r="6.89795" transform="rotate(25.0456 530.92 68.7852)" fill="white"/>
</g>
<g opacity="0.025">
<path d="M689.922 132.611L708.018 93.8854C709.655 90.3829 708.142 86.2169 704.64 84.5802L597.037 34.2999C593.534 32.6633 589.368 34.1759 587.732 37.6783L536.852 146.564C535.215 150.067 536.728 154.233 540.23 155.869L647.833 206.15C651.335 207.786 655.502 206.274 657.138 202.771L673.384 168.004" stroke="white" stroke-width="15"/>
<path d="M666.026 121.444L675.318 101.557C675.318 101.557 626.277 78.9668 602.986 67.7579L569.112 140.251L641.444 174.05L649.463 156.889" stroke="white" stroke-width="15"/>
<path d="M591.961 108.916L664.365 142.531" stroke="white" stroke-width="15"/>
<circle cx="681.55" cy="150.564" r="6.89795" transform="rotate(25.0456 681.55 150.564)" fill="white"/>
</g>
<g opacity="0.025">
<path d="M840.552 214.39L858.647 175.664C860.284 172.162 858.771 167.996 855.269 166.359L747.666 116.079C744.164 114.442 739.997 115.955 738.361 119.457L687.481 228.343C685.844 231.846 687.357 236.012 690.859 237.648L798.462 287.929C801.965 289.565 806.131 288.053 807.767 284.55L824.013 249.783" stroke="white" stroke-width="15"/>
<path d="M816.655 203.223L825.948 183.336C825.948 183.336 776.906 160.746 753.615 149.537L719.741 222.029L792.074 255.829L800.092 238.668" stroke="white" stroke-width="15"/>
<path d="M742.59 190.695L814.995 224.31" stroke="white" stroke-width="15"/>
<circle cx="832.179" cy="232.343" r="6.89795" transform="rotate(25.0456 832.179 232.343)" fill="white"/>
</g>
<g opacity="0.025">
<path d="M991.181 296.169L1009.28 257.443C1010.91 253.941 1009.4 249.775 1005.9 248.138L898.295 197.858C894.793 196.221 890.627 197.734 888.99 201.236L838.11 310.122C836.474 313.624 837.986 317.791 841.489 319.427L949.092 369.707C952.594 371.344 956.76 369.832 958.397 366.329L974.643 331.562" stroke="white" stroke-width="15"/>
<path d="M967.284 285.002L976.577 265.115C976.577 265.115 927.536 242.525 904.245 231.316L870.371 303.808L942.703 337.607L950.722 320.447" stroke="white" stroke-width="15"/>
<path d="M893.219 272.474L965.624 306.089" stroke="white" stroke-width="15"/>
<circle cx="982.808" cy="314.122" r="6.89795" transform="rotate(25.0456 982.808 314.122)" fill="white"/>
</g>
<g opacity="0.025">
<path d="M1141.81 377.947L1159.91 339.222C1161.54 335.719 1160.03 331.553 1156.53 329.917L1048.92 279.636C1045.42 278 1041.26 279.512 1039.62 283.015L988.74 391.901C987.103 395.403 988.616 399.569 992.118 401.206L1099.72 451.486C1103.22 453.123 1107.39 451.61 1109.03 448.108L1125.27 413.34" stroke="white" stroke-width="15"/>
<path d="M1117.91 366.781L1127.21 346.894C1127.21 346.894 1078.17 324.303 1054.87 313.094L1021 385.587L1093.33 419.386L1101.35 402.225" stroke="white" stroke-width="15"/>
<path d="M1043.85 354.253L1116.25 387.868" stroke="white" stroke-width="15"/>
<circle cx="1133.44" cy="395.901" r="6.89795" transform="rotate(25.0456 1133.44 395.901)" fill="white"/>
</g>
<g opacity="0.025">
<path d="M1292.44 459.726L1310.54 421.001C1312.17 417.498 1310.66 413.332 1307.16 411.696L1199.55 361.415C1196.05 359.779 1191.89 361.291 1190.25 364.794L1139.37 473.68C1137.73 477.182 1139.25 481.348 1142.75 482.985L1250.35 533.265C1253.85 534.902 1258.02 533.389 1259.66 529.887L1275.9 495.119" stroke="white" stroke-width="15"/>
<path d="M1268.54 448.56L1277.84 428.672C1277.84 428.672 1228.79 406.082 1205.5 394.873L1171.63 467.366L1243.96 501.165L1251.98 484.004" stroke="white" stroke-width="15"/>
<path d="M1194.48 436.031L1266.88 469.646" stroke="white" stroke-width="15"/>
<circle cx="1284.07" cy="477.679" r="6.89795" transform="rotate(25.0456 1284.07 477.679)" fill="white"/>
</g>
<g opacity="0.025">
<path d="M1443.07 541.505L1461.16 502.78C1462.8 499.277 1461.29 495.111 1457.79 493.474L1350.18 443.194C1346.68 441.558 1342.52 443.07 1340.88 446.573L1290 555.458C1288.36 558.961 1289.87 563.127 1293.38 564.764L1400.98 615.044C1404.48 616.681 1408.65 615.168 1410.29 611.666L1426.53 576.898" stroke="white" stroke-width="15"/>
<path d="M1419.17 530.339L1428.47 510.451C1428.47 510.451 1379.42 487.861 1356.13 476.652L1322.26 549.145L1394.59 582.944L1402.61 565.783" stroke="white" stroke-width="15"/>
<path d="M1345.11 517.81L1417.51 551.425" stroke="white" stroke-width="15"/>
<circle cx="1434.7" cy="559.458" r="6.89795" transform="rotate(25.0456 1434.7 559.458)" fill="white"/>
</g>
<g opacity="0.025">
<path d="M1593.7 623.284L1611.79 584.559C1613.43 581.056 1611.92 576.89 1608.42 575.253L1500.81 524.973C1497.31 523.336 1493.14 524.849 1491.51 528.351L1440.63 637.237C1438.99 640.74 1440.5 644.906 1444.01 646.543L1551.61 696.823C1555.11 698.459 1559.28 696.947 1560.91 693.444L1577.16 658.677" stroke="white" stroke-width="15"/>
<path d="M1569.8 612.118L1579.09 592.23C1579.09 592.23 1530.05 569.64 1506.76 558.431L1472.89 630.924L1545.22 664.723L1553.24 647.562" stroke="white" stroke-width="15"/>
<path d="M1495.74 599.589L1568.14 633.204" stroke="white" stroke-width="15"/>
<circle cx="1585.33" cy="641.237" r="6.89795" transform="rotate(25.0456 1585.33 641.237)" fill="white"/>
</g>
<g opacity="0.025">
<path d="M1744.33 705.063L1762.42 666.337C1764.06 662.835 1762.55 658.669 1759.05 657.032L1651.44 606.752C1647.94 605.115 1643.77 606.628 1642.14 610.13L1591.26 719.016C1589.62 722.519 1591.13 726.685 1594.64 728.321L1702.24 778.602C1705.74 780.238 1709.91 778.726 1711.54 775.223L1727.79 740.456" stroke="white" stroke-width="15"/>
<path d="M1720.43 693.896L1729.72 674.009C1729.72 674.009 1680.68 651.419 1657.39 640.21L1623.52 712.703L1695.85 746.502L1703.87 729.341" stroke="white" stroke-width="15"/>
<path d="M1646.37 681.368L1718.77 714.983" stroke="white" stroke-width="15"/>
<circle cx="1735.96" cy="723.016" r="6.89795" transform="rotate(25.0456 1735.96 723.016)" fill="white"/>
</g>
<g opacity="0.025">
<path d="M1894.96 786.842L1913.05 748.116C1914.69 744.614 1913.18 740.448 1909.67 738.811L1802.07 688.531C1798.57 686.894 1794.4 688.407 1792.77 691.909L1741.89 800.795C1740.25 804.298 1741.76 808.464 1745.27 810.1L1852.87 860.381C1856.37 862.017 1860.54 860.505 1862.17 857.002L1878.42 822.235" stroke="white" stroke-width="15"/>
<path d="M1871.06 775.675L1880.35 755.788C1880.35 755.788 1831.31 733.198 1808.02 721.989L1774.15 794.481L1846.48 828.281L1854.5 811.12" stroke="white" stroke-width="15"/>
<path d="M1797 763.147L1869.4 796.762" stroke="white" stroke-width="15"/>
<circle cx="1886.58" cy="804.795" r="6.89795" transform="rotate(25.0456 1886.58 804.795)" fill="white"/>
</g>
<g opacity="0.025">
<path d="M2045.59 868.621L2063.68 829.895C2065.32 826.393 2063.81 822.227 2060.3 820.59L1952.7 770.31C1949.2 768.673 1945.03 770.186 1943.4 773.688L1892.52 882.574C1890.88 886.076 1892.39 890.242 1895.89 891.879L2003.5 942.159C2007 943.796 2011.17 942.283 2012.8 938.781L2029.05 904.014" stroke="white" stroke-width="15"/>
<path d="M2021.69 857.454L2030.98 837.567C2030.98 837.567 1981.94 814.977 1958.65 803.768L1924.78 876.26L1997.11 910.059L2005.13 892.899" stroke="white" stroke-width="15"/>
</g>
<g opacity="0.025">
<path d="M806.922 -25.3891L825.018 -64.1146C826.655 -67.6171 825.142 -71.7831 821.64 -73.4198L714.037 -123.7C710.534 -125.337 706.368 -123.824 704.732 -120.322L653.852 -11.4357C652.215 -7.93325 653.728 -3.76719 657.23 -2.13056L764.833 48.1497C768.335 49.7864 772.502 48.2738 774.138 44.7713L790.384 10.0039" stroke="white" stroke-width="15"/>
<path d="M783.026 -36.5555L792.318 -56.4429C792.318 -56.4429 743.277 -79.0331 719.986 -90.2421L686.112 -17.7494L758.444 16.0498L766.463 -1.11111" stroke="white" stroke-width="15"/>
<circle cx="798.55" cy="-7.43589" r="6.89795" transform="rotate(25.0456 798.55 -7.43589)" fill="white"/>
</g>
<g opacity="0.025">
<path d="M957.552 56.3897L975.647 17.6642C977.284 14.1617 975.771 9.99567 972.269 8.35904L864.666 -41.9213C861.164 -43.5579 856.997 -42.0453 855.361 -38.5428L804.481 70.3431C802.844 73.8456 804.357 78.0116 807.859 79.6482L915.462 129.929C918.965 131.565 923.131 130.053 924.767 126.55L941.013 91.7827" stroke="white" stroke-width="15"/>
<path d="M933.655 45.2233L942.948 25.3359C942.948 25.3359 893.906 2.74569 870.615 -8.46326L836.741 64.0294L909.074 97.8286L917.092 80.6677" stroke="white" stroke-width="15"/>
<path d="M859.59 32.6949L931.995 66.3099" stroke="white" stroke-width="15"/>
<circle cx="949.179" cy="74.3429" r="6.89795" transform="rotate(25.0456 949.179 74.3429)" fill="white"/>
</g>
<g opacity="0.025">
<path d="M1108.18 138.169L1126.28 99.4431C1127.91 95.9407 1126.4 91.7746 1122.9 90.138L1015.3 39.8577C1011.79 38.221 1007.63 39.7336 1005.99 43.2361L955.11 152.122C953.474 155.624 954.986 159.791 958.489 161.427L1066.09 211.707C1069.59 213.344 1073.76 211.832 1075.4 208.329L1091.64 173.562" stroke="white" stroke-width="15"/>
<path d="M1084.28 127.002L1093.58 107.115C1093.58 107.115 1044.54 84.5246 1021.24 73.3156L987.371 145.808L1059.7 179.607L1067.72 162.447" stroke="white" stroke-width="15"/>
<path d="M1010.22 114.474L1082.62 148.089" stroke="white" stroke-width="15"/>
<circle cx="1099.81" cy="156.122" r="6.89795" transform="rotate(25.0456 1099.81 156.122)" fill="white"/>
</g>
<g opacity="0.025">
<path d="M1258.81 219.947L1276.91 181.222C1278.54 177.719 1277.03 173.553 1273.53 171.917L1165.92 121.636C1162.42 120 1158.26 121.512 1156.62 125.015L1105.74 233.901C1104.1 237.403 1105.62 241.569 1109.12 243.206L1216.72 293.486C1220.22 295.123 1224.39 293.61 1226.03 290.108L1242.27 255.34" stroke="white" stroke-width="15"/>
<path d="M1234.91 208.781L1244.21 188.894C1244.21 188.894 1195.17 166.303 1171.87 155.094L1138 227.587L1210.33 261.386L1218.35 244.225" stroke="white" stroke-width="15"/>
<path d="M1160.85 196.253L1233.25 229.868" stroke="white" stroke-width="15"/>
<circle cx="1250.44" cy="237.901" r="6.89795" transform="rotate(25.0456 1250.44 237.901)" fill="white"/>
</g>
<g opacity="0.025">
<path d="M1409.44 301.726L1427.54 263.001C1429.17 259.498 1427.66 255.332 1424.16 253.696L1316.55 203.415C1313.05 201.779 1308.89 203.291 1307.25 206.794L1256.37 315.68C1254.73 319.182 1256.25 323.348 1259.75 324.985L1367.35 375.265C1370.85 376.902 1375.02 375.389 1376.66 371.887L1392.9 337.119" stroke="white" stroke-width="15"/>
<path d="M1385.54 290.56L1394.84 270.672C1394.84 270.672 1345.79 248.082 1322.5 236.873L1288.63 309.366L1360.96 343.165L1368.98 326.004" stroke="white" stroke-width="15"/>
<path d="M1311.48 278.031L1383.88 311.646" stroke="white" stroke-width="15"/>
<circle cx="1401.07" cy="319.679" r="6.89795" transform="rotate(25.0456 1401.07 319.679)" fill="white"/>
</g>
<g opacity="0.025">
<path d="M1560.07 383.505L1578.16 344.78C1579.8 341.277 1578.29 337.111 1574.79 335.474L1467.18 285.194C1463.68 283.558 1459.52 285.07 1457.88 288.573L1407 397.458C1405.36 400.961 1406.87 405.127 1410.38 406.764L1517.98 457.044C1521.48 458.681 1525.65 457.168 1527.29 453.666L1543.53 418.898" stroke="white" stroke-width="15"/>
<path d="M1536.17 372.339L1545.47 352.451C1545.47 352.451 1496.42 329.861 1473.13 318.652L1439.26 391.145L1511.59 424.944L1519.61 407.783" stroke="white" stroke-width="15"/>
<path d="M1462.11 359.81L1534.51 393.425" stroke="white" stroke-width="15"/>
<circle cx="1551.7" cy="401.458" r="6.89795" transform="rotate(25.0456 1551.7 401.458)" fill="white"/>
</g>
<g opacity="0.025">
<path d="M1710.7 465.284L1728.79 426.559C1730.43 423.056 1728.92 418.89 1725.42 417.253L1617.81 366.973C1614.31 365.336 1610.14 366.849 1608.51 370.351L1557.63 479.237C1555.99 482.74 1557.5 486.906 1561.01 488.543L1668.61 538.823C1672.11 540.459 1676.28 538.947 1677.91 535.444L1694.16 500.677" stroke="white" stroke-width="15"/>
<path d="M1686.8 454.118L1696.09 434.23C1696.09 434.23 1647.05 411.64 1623.76 400.431L1589.89 472.924L1662.22 506.723L1670.24 489.562" stroke="white" stroke-width="15"/>
<path d="M1612.74 441.589L1685.14 475.204" stroke="white" stroke-width="15"/>
<circle cx="1702.33" cy="483.237" r="6.89795" transform="rotate(25.0456 1702.33 483.237)" fill="white"/>
</g>
<g opacity="0.025">
<path d="M1861.33 547.063L1879.42 508.337C1881.06 504.835 1879.55 500.669 1876.05 499.032L1768.44 448.752C1764.94 447.115 1760.77 448.628 1759.14 452.13L1708.26 561.016C1706.62 564.519 1708.13 568.685 1711.64 570.321L1819.24 620.602C1822.74 622.238 1826.91 620.726 1828.54 617.223L1844.79 582.456" stroke="white" stroke-width="15"/>
<path d="M1837.43 535.896L1846.72 516.009C1846.72 516.009 1797.68 493.419 1774.39 482.21L1740.52 554.703L1812.85 588.502L1820.87 571.341" stroke="white" stroke-width="15"/>
<path d="M1763.37 523.368L1835.77 556.983" stroke="white" stroke-width="15"/>
<circle cx="1852.96" cy="565.016" r="6.89795" transform="rotate(25.0456 1852.96 565.016)" fill="white"/>
</g>
<g opacity="0.025">
<path d="M2011.96 628.842L2030.05 590.116C2031.69 586.614 2030.18 582.448 2026.67 580.811L1919.07 530.531C1915.57 528.894 1911.4 530.407 1909.77 533.909L1858.89 642.795C1857.25 646.298 1858.76 650.464 1862.27 652.1L1969.87 702.381C1973.37 704.017 1977.54 702.505 1979.17 699.002L1995.42 664.235" stroke="white" stroke-width="15"/>
<path d="M1988.06 617.675L1997.35 597.788C1997.35 597.788 1948.31 575.198 1925.02 563.989L1891.15 636.481L1963.48 670.281L1971.5 653.12" stroke="white" stroke-width="15"/>
<path d="M1914 605.147L1986.4 638.762" stroke="white" stroke-width="15"/>
</g>
<g opacity="0.025">
<path d="M1225.18 -19.8313L1243.28 -58.5569C1244.91 -62.0593 1243.4 -66.2254 1239.9 -67.862L1132.3 -118.142C1128.79 -119.779 1124.63 -118.266 1122.99 -114.764L1072.11 -5.87799C1070.47 -2.37551 1071.99 1.79055 1075.49 3.42718L1183.09 53.7075C1186.59 55.3441 1190.76 53.8315 1192.4 50.3291L1208.64 15.5616" stroke="white" stroke-width="15"/>
<path d="M1201.28 -30.9978L1210.58 -50.8851C1210.58 -50.8851 1161.54 -73.4754 1138.24 -84.6843L1104.37 -12.1917L1176.7 21.6075L1184.72 4.44663" stroke="white" stroke-width="15"/>
<circle cx="1216.81" cy="-1.87815" r="6.89795" transform="rotate(25.0456 1216.81 -1.87815)" fill="white"/>
</g>
<g opacity="0.025">
<path d="M1375.81 61.9475L1393.91 23.222C1395.54 19.7195 1394.03 15.5534 1390.53 13.9168L1282.92 -36.3635C1279.42 -38.0002 1275.26 -36.4876 1273.62 -32.9851L1222.74 75.9008C1221.1 79.4033 1222.62 83.5694 1226.12 85.206L1333.72 135.486C1337.22 137.123 1341.39 135.61 1343.03 132.108L1359.27 97.3405" stroke="white" stroke-width="15"/>
<path d="M1351.91 50.781L1361.21 30.8937C1361.21 30.8937 1312.17 8.30343 1288.87 -2.90552L1255 69.5871L1327.33 103.386L1335.35 86.2254" stroke="white" stroke-width="15"/>
<path d="M1277.85 38.2526L1350.25 71.8676" stroke="white" stroke-width="15"/>
<circle cx="1367.44" cy="79.9006" r="6.89795" transform="rotate(25.0456 1367.44 79.9006)" fill="white"/>
</g>
<g opacity="0.025">
<path d="M1526.44 143.726L1544.54 105.001C1546.17 101.498 1544.66 97.3322 1541.16 95.6956L1433.55 45.4153C1430.05 43.7787 1425.89 45.2912 1424.25 48.7937L1373.37 157.68C1371.73 161.182 1373.25 165.348 1376.75 166.985L1484.35 217.265C1487.85 218.902 1492.02 217.389 1493.66 213.887L1509.9 179.119" stroke="white" stroke-width="15"/>
<path d="M1502.54 132.56L1511.84 112.672C1511.84 112.672 1462.79 90.0822 1439.5 78.8733L1405.63 151.366L1477.96 185.165L1485.98 168.004" stroke="white" stroke-width="15"/>
<path d="M1428.48 120.031L1500.88 153.646" stroke="white" stroke-width="15"/>
<circle cx="1518.07" cy="161.679" r="6.89795" transform="rotate(25.0456 1518.07 161.679)" fill="white"/>
</g>
<g opacity="0.025">
<path d="M1677.07 225.505L1695.16 186.78C1696.8 183.277 1695.29 179.111 1691.79 177.474L1584.18 127.194C1580.68 125.558 1576.52 127.07 1574.88 130.573L1524 239.458C1522.36 242.961 1523.87 247.127 1527.38 248.764L1634.98 299.044C1638.48 300.681 1642.65 299.168 1644.29 295.666L1660.53 260.898" stroke="white" stroke-width="15"/>
<path d="M1653.17 214.339L1662.47 194.451C1662.47 194.451 1613.42 171.861 1590.13 160.652L1556.26 233.145L1628.59 266.944L1636.61 249.783" stroke="white" stroke-width="15"/>
<path d="M1579.11 201.81L1651.51 235.425" stroke="white" stroke-width="15"/>
<circle cx="1668.7" cy="243.458" r="6.89795" transform="rotate(25.0456 1668.7 243.458)" fill="white"/>
</g>
<g opacity="0.025">
<path d="M1827.7 307.284L1845.79 268.559C1847.43 265.056 1845.92 260.89 1842.42 259.253L1734.81 208.973C1731.31 207.336 1727.14 208.849 1725.51 212.351L1674.63 321.237C1672.99 324.74 1674.5 328.906 1678.01 330.543L1785.61 380.823C1789.11 382.459 1793.28 380.947 1794.91 377.444L1811.16 342.677" stroke="white" stroke-width="15"/>
<path d="M1803.8 296.118L1813.09 276.23C1813.09 276.23 1764.05 253.64 1740.76 242.431L1706.89 314.924L1779.22 348.723L1787.24 331.562" stroke="white" stroke-width="15"/>
<path d="M1729.74 283.589L1802.14 317.204" stroke="white" stroke-width="15"/>
<circle cx="1819.33" cy="325.237" r="6.89795" transform="rotate(25.0456 1819.33 325.237)" fill="white"/>
</g>
<g opacity="0.025">
<path d="M1978.33 389.063L1996.42 350.337C1998.06 346.835 1996.55 342.669 1993.05 341.032L1885.44 290.752C1881.94 289.115 1877.77 290.628 1876.14 294.13L1825.26 403.016C1823.62 406.519 1825.13 410.685 1828.64 412.321L1936.24 462.602C1939.74 464.238 1943.91 462.726 1945.54 459.223L1961.79 424.456" stroke="white" stroke-width="15"/>
<path d="M1954.43 377.896L1963.72 358.009C1963.72 358.009 1914.68 335.419 1891.39 324.21L1857.52 396.703L1929.85 430.502L1937.87 413.341" stroke="white" stroke-width="15"/>
<path d="M1880.37 365.368L1952.77 398.983" stroke="white" stroke-width="15"/>
</g>
<g opacity="0.025">
<path d="M1643.44 -14.2737L1661.54 -52.9992C1663.17 -56.5017 1661.66 -60.6678 1658.16 -62.3044L1550.55 -112.585C1547.05 -114.221 1542.89 -112.709 1541.25 -109.206L1490.37 -0.320374C1488.73 3.1821 1490.25 7.34817 1493.75 8.98479L1601.35 59.2651C1604.85 60.9017 1609.02 59.3892 1610.66 55.8867L1626.9 21.1193" stroke="white" stroke-width="15"/>
<path d="M1619.54 -25.4402L1628.84 -45.3275C1628.84 -45.3275 1579.79 -67.9178 1556.5 -79.1267L1522.63 -6.63406L1594.96 27.1651L1602.98 10.0042" stroke="white" stroke-width="15"/>
<path d="M1545.48 -37.9686L1617.88 -4.35359" stroke="white" stroke-width="15"/>
<circle cx="1635.07" cy="3.67946" r="6.89795" transform="rotate(25.0456 1635.07 3.67946)" fill="white"/>
</g>
<g opacity="0.025">
<path d="M1794.07 67.5052L1812.16 28.7796C1813.8 25.2772 1812.29 21.1111 1808.79 19.4745L1701.18 -30.8058C1697.68 -32.4425 1693.52 -30.9299 1691.88 -27.4274L1641 81.4585C1639.36 84.961 1640.87 89.127 1644.38 90.7637L1751.98 141.044C1755.48 142.681 1759.65 141.168 1761.29 137.666L1777.53 102.898" stroke="white" stroke-width="15"/>
<path d="M1770.17 56.3387L1779.47 36.4513C1779.47 36.4513 1730.42 13.8611 1707.13 2.65216L1673.26 75.1448L1745.59 108.944L1753.61 91.7831" stroke="white" stroke-width="15"/>
<path d="M1696.11 43.8103L1768.51 77.4253" stroke="white" stroke-width="15"/>
<circle cx="1785.7" cy="85.4583" r="6.89795" transform="rotate(25.0456 1785.7 85.4583)" fill="white"/>
</g>
<g opacity="0.025">
<path d="M1944.7 149.284L1962.79 110.559C1964.43 107.056 1962.92 102.89 1959.42 101.253L1851.81 50.973C1848.31 49.3364 1844.14 50.849 1842.51 54.3514L1791.63 163.237C1789.99 166.74 1791.5 170.906 1795.01 172.543L1902.61 222.823C1906.11 224.459 1910.28 222.947 1911.91 219.444L1928.16 184.677" stroke="white" stroke-width="15"/>
<path d="M1920.8 138.118L1930.09 118.23C1930.09 118.23 1881.05 95.6399 1857.76 84.431L1823.89 156.924L1896.22 190.723L1904.24 173.562" stroke="white" stroke-width="15"/>
<path d="M1846.74 125.589L1919.14 159.204" stroke="white" stroke-width="15"/>
</g>
<g opacity="0.025">
<path d="M2061.7 -8.71597L2079.79 -47.4415C2081.43 -50.944 2079.92 -55.11 2076.42 -56.7467L1968.81 -107.027C1965.31 -108.664 1961.14 -107.151 1959.51 -103.649L1908.63 5.23737C1906.99 8.73984 1908.5 12.9059 1912.01 14.5425L2019.61 64.8228C2023.11 66.4595 2027.28 64.9469 2028.91 61.4444L2045.16 26.677" stroke="white" stroke-width="15"/>
</g>
</g>
<defs>
<clipPath id="clip0_1_2">
<rect width="1920" height="1080" fill="white"/>
</clipPath>
</defs>
</svg>